<svg width="264" height="811" viewBox="0 0 264 811" fill="none" xmlns="http://www.w3.org/2000/svg">
<rect x="7" y="55.7864" width="243.97" height="286.559" fill="white" stroke="#B42727" stroke-width="14"/>
<rect x="7" y="344.149" width="243.97" height="419.851" fill="white" stroke="#B42727" stroke-width="14"/>
<rect x="131.452" y="7" width="125.287" height="177.661" fill="white" stroke="#B42727" stroke-width="14"/>
<rect x="6.59351" y="56.6271" width="47.8027" height="284.007" fill="#C4C4C4"/>
<rect x="202.749" y="447.79" width="45.3302" height="188.176" fill="#C4C4C4"/>
<rect x="6.59351" y="350.217" width="47.8027" height="409.458" fill="#C4C4C4"/>
<path d="M178.348 675.605C178.348 681.165 176.714 686.178 174.098 689.788C171.481 693.399 167.909 695.578 164.013 695.578C160.116 695.578 156.544 693.399 153.927 689.788C151.311 686.178 149.677 681.165 149.677 675.605C149.677 670.045 151.311 665.033 153.927 661.422C156.544 657.811 160.116 655.632 164.013 655.632C167.909 655.632 171.481 657.811 174.098 661.422C176.714 665.033 178.348 670.045 178.348 675.605Z" fill="white" stroke="black"/>
<rect x="122.5" y="353.5" width="119" height="49" fill="white" stroke="black"/>
<rect x="177.5" y="353.5" width="49" height="49" fill="white" stroke="black"/>
<path d="M200.63 368C200.63 373.268 196.551 377.5 191.565 377.5C186.579 377.5 182.5 373.268 182.5 368C182.5 362.732 186.579 358.5 191.565 358.5C196.551 358.5 200.63 362.732 200.63 368Z" fill="white" stroke="black"/>
<path d="M223.63 389C223.63 394.268 219.551 398.5 214.565 398.5C209.579 398.5 205.5 394.268 205.5 389C205.5 383.732 209.579 379.5 214.565 379.5C219.551 379.5 223.63 383.732 223.63 389Z" fill="white" stroke="black"/>
<path d="M198.848 391.5C198.848 395.387 195.839 398.5 192.174 398.5C188.509 398.5 185.5 395.387 185.5 391.5C185.5 387.613 188.509 384.5 192.174 384.5C195.839 384.5 198.848 387.613 198.848 391.5Z" fill="white" stroke="black"/>
<path d="M221.848 365.5C221.848 369.387 218.839 372.5 215.174 372.5C211.509 372.5 208.5 369.387 208.5 365.5C208.5 361.613 211.509 358.5 215.174 358.5C218.839 358.5 221.848 361.613 221.848 365.5Z" fill="white" stroke="black"/>
<rect x="141.5" y="599.5" width="49" height="45" rx="4.5" fill="white" stroke="black"/>
<path d="M141.5 608.516C145.409 608.774 148.5 612.026 148.5 616V639.5H141.5V608.516Z" fill="white" stroke="black"/>
<path d="M183.5 615C183.5 611.026 186.591 607.774 190.5 607.516V639.5H183.5V615Z" fill="white" stroke="black"/>
<rect x="141.5" y="600.5" width="49" height="7" rx="3.5" fill="white" stroke="black"/>
<rect x="148.5" y="608.5" width="34" height="4" rx="2" fill="white" stroke="black"/>
<rect x="128.684" y="738.217" width="49" height="45" rx="4.5" transform="rotate(-133.901 128.684 738.217)" fill="white" stroke="black"/>
<path d="M135.181 731.965C132.656 728.97 132.856 724.488 135.719 721.732L152.652 705.437L157.506 710.481L135.181 731.965Z" fill="white" stroke="black"/>
<path d="M110.729 697.206C107.866 699.962 103.379 699.99 100.483 697.352L123.529 675.174L128.383 680.218L110.729 697.206Z" fill="white" stroke="black"/>
<rect x="129.405" y="737.524" width="49" height="7" rx="3.5" transform="rotate(-133.901 129.405 737.524)" fill="white" stroke="black"/>
<rect x="130.315" y="726.933" width="34" height="4" rx="2" transform="rotate(-133.901 130.315 726.933)" fill="white" stroke="black"/>
<rect x="240.215" y="703.081" width="49" height="45" rx="4.5" transform="rotate(136.007 240.215 703.081)" fill="white" stroke="black"/>
<path d="M233.952 696.595C230.961 699.125 226.478 698.932 223.718 696.073L207.396 679.166L212.432 674.304L233.952 696.595Z" fill="white" stroke="black"/>
<path d="M199.233 721.102C201.993 723.961 202.028 728.448 199.395 731.348L177.18 708.338L182.216 703.476L199.233 721.102Z" fill="white" stroke="black"/>
<rect x="239.52" y="702.362" width="49" height="7" rx="3.5" transform="rotate(136.007 239.52 702.362)" fill="white" stroke="black"/>
<rect x="228.927" y="701.468" width="34" height="4" rx="2" transform="rotate(136.007 228.927 701.468)" fill="white" stroke="black"/>
<path d="M146.5 158C146.5 148.335 154.335 140.5 164 140.5H174C183.665 140.5 191.5 148.335 191.5 158V175.5H146.5V158Z" fill="white" stroke="black"/>
<path d="M151.5 156.5C151.5 150.977 155.977 146.5 161.5 146.5H176.5C182.023 146.5 186.5 150.977 186.5 156.5C186.5 162.023 182.023 166.5 176.5 166.5H161.5C155.977 166.5 151.5 162.023 151.5 156.5Z" fill="white" stroke="black"/>
<rect x="167.25" y="158.25" width="3.5" height="12.5" rx="1.75" fill="white" stroke="black" stroke-width="0.5"/>
<circle cx="169" cy="167" r="2.75" fill="white" stroke="black" stroke-width="0.5"/>
<path d="M154.5 39.5H173.5V43.5C173.5 48.4706 169.471 52.5 164.5 52.5H163.5C158.529 52.5 154.5 48.4706 154.5 43.5V39.5Z" fill="white" stroke="black" stroke-linejoin="round"/>
<line x1="154.513" y1="38.8876" x2="157.513" y2="25.8876" stroke="black"/>
<line x1="173.513" y1="39.1124" x2="170.513" y2="26.1124" stroke="black"/>
<rect x="151.5" y="16.5" width="25" height="9" rx="4.5" fill="white" stroke="black"/>
<rect x="155" y="39" width="18" height="3" fill="white"/>
<path d="M171.5 41.5C171.5 46.5545 168.065 50.5 164 50.5C159.935 50.5 156.5 46.5545 156.5 41.5C156.5 36.4455 159.935 32.5 164 32.5C168.065 32.5 171.5 36.4455 171.5 41.5Z" fill="white" stroke="black"/>
<path d="M161.5 38.1429C161.5 37.7878 161.788 37.5 162.143 37.5H165.857C166.212 37.5 166.5 37.7878 166.5 38.1429C166.5 39.4447 165.445 40.5 164.143 40.5H163.857C162.555 40.5 161.5 39.4447 161.5 38.1429Z" fill="white" stroke="black"/>
<rect x="61" y="335" width="45" height="17" fill="white"/>
<rect x="122" y="140" width="45" height="17" transform="rotate(-90 122 140)" fill="white"/>
</svg>
